HIERARCHY
ROOT Hips
{
  OFFSET 0 89.5177 0.535
  CHANNELS 6 Xposition Yposition Zposition Zrotation Xrotation Yrotation
  JOINT Spine
  {
    OFFSET 12.0259 -0.162855 1.69034e-005
    CHANNELS 3 Zrotation Xrotation Yrotation
    JOINT Spine1
    {
      OFFSET 15.3169 -0.0121922 0
      CHANNELS 3 Zrotation Xrotation Yrotation
      JOINT Spine2
      {
        OFFSET 15.3176 -0.0121908 0
        CHANNELS 3 Zrotation Xrotation Yrotation
        JOINT Neck
        {
          OFFSET 19.9142 1.56338 0
          CHANNELS 3 Zrotation Xrotation Yrotation
          JOINT Head
          {
            OFFSET 6.92651 0 0
            CHANNELS 3 Zrotation Xrotation Yrotation
            End Site
            {
              OFFSET 20.7666 0 0
            }
          }
          JOINT LeftShoulder
          {
            OFFSET -6.20654 0.708824 7.28219
            CHANNELS 3 Zrotation Xrotation Yrotation
            JOINT LeftArm
            {
              OFFSET 14.108 0 -1.52588e-005
              CHANNELS 3 Zrotation Xrotation Yrotation
              JOINT LeftForeArm
              {
                OFFSET 28.5802 0 0
                CHANNELS 3 Zrotation Xrotation Yrotation
                JOINT LeftHand
                {
                  OFFSET 27.092 0 0
                  CHANNELS 3 Zrotation Xrotation Yrotation
                  End Site
                  {
                    OFFSET 9.55928 -0.186424 0.145352
                  }
                }
              }
            }
          }
          JOINT RightShoulder
          {
            OFFSET -6.20654 0.708866 -7.28218
            CHANNELS 3 Zrotation Xrotation Yrotation
            JOINT RightArm
            {
              OFFSET 14.108 0 1.52588e-005
              CHANNELS 3 Zrotation Xrotation Yrotation
              JOINT RightForeArm
              {
                OFFSET 28.5802 0 0
                CHANNELS 3 Zrotation Xrotation Yrotation
                JOINT RightHand
                {
                  OFFSET 27.092 0 0
                  CHANNELS 3 Zrotation Xrotation Yrotation
                  End Site
                  {
                    OFFSET 9.55929 -0.186417 -0.145354
                  }
                }
              }
            }
          }
        }
      }
    }
  }
  JOINT LeftUpLeg
  {
    OFFSET 0.005 -0.535 8.837
    CHANNELS 3 Zrotation Xrotation Yrotation
    JOINT LeftLeg
    {
      OFFSET 39.9035 0 0
      CHANNELS 3 Zrotation Xrotation Yrotation
      JOINT LeftFoot
      {
        OFFSET 39.6689 0 0
        CHANNELS 3 Zrotation Xrotation Yrotation
        JOINT LeftToe
        {
          OFFSET 10.1624 13.6296 0
          CHANNELS 3 Zrotation Xrotation Yrotation
          End Site
          {
            OFFSET 8.38147 0 0
          }
        }
      }
    }
  }
  JOINT RightUpLeg
  {
    OFFSET 0.005 -0.535 -8.837
    CHANNELS 3 Zrotation Xrotation Yrotation
    JOINT RightLeg
    {
      OFFSET 39.9035 0 0
      CHANNELS 3 Zrotation Xrotation Yrotation
      JOINT RightFoot
      {
        OFFSET 39.6689 0 0
        CHANNELS 3 Zrotation Xrotation Yrotation
        JOINT RightToe
        {
          OFFSET 10.1624 13.6296 0
          CHANNELS 3 Zrotation Xrotation Yrotation
          End Site
          {
            OFFSET 8.38147 0 0
          }
        }
      }
    }
  }
}
MOTION
Frames:	6
Frame Time:	0.0333333
126.303 74.3417 235.375 -118.613 -10.774 174.611 5.22067 -1.91834 1.24473 10.4901 -3.71441 2.66125 10.4901 -3.71441 2.66124 -8.30688e-012 -9.0191e-006 -5.27751e-005 -3.1524 -20.8742 7.05881 -178.119 -10.9673 -80.2077 -55.0945 -35.0113 44.3479 -43.3062 6.36111e-015 3.18055e-015 -46.2736 -72.2217 -51.9475 -179.775 12.2054 88.9351 -71.9043 65.9906 14.0107 -17.9644 9.54166e-015 3.18055e-015 -47.1589 80.4345 49.1012 -63.3036 14.9256 -145.747 -63.9872 -3.18055e-015 4.77083e-015 28.4762 9.13246 -14.5897 90 7.95139e-016 3.18055e-015 -73.2162 6.08602 159.502 -57.1542 1.78906e-015 -6.36111e-015 30.5532 -27.6266 36.7292 90 -3.18055e-015 -0 
127.105 73.7897 237.165 -119.215 -10.8365 174.869 5.32558 -1.99972 1.37792 10.7069 -3.86171 2.93833 10.7069 -3.86171 2.93832 -8.29912e-012 -9.0191e-006 -5.27751e-005 -6.45192 -17.5766 4.96519 -178.12 -11.7207 -80.8188 -57.8541 -41.9024 44.0416 -42.4164 3.18055e-015 -3.18055e-015 -48.9341 -72.7687 -54.7539 -179.83 12.0149 89.1846 -70.0341 65.0134 7.823 -25.3403 3.18055e-015 -3.18055e-015 -51.1924 82.3876 53.0778 -63.7538 13.9823 -145.226 -64.1337 6.36111e-015 4.77083e-015 27.7403 8.80923 -14.0509 90 3.97569e-016 -1.27222e-014 -76.9353 3.45693 158.738 -61.1856 3.97569e-015 -3.18056e-015 31.0875 -28.0716 35.8861 90 -3.18055e-015 3.18055e-015 
127.616 73.3179 238.894 -120.571 -10.1115 174.479 5.43028 -1.69071 1.50111 10.9095 -3.23059 3.1576 10.9095 -3.2306 3.1576 -8.30326e-012 -9.0191e-006 -5.27751e-005 -10.7163 -14.0949 2.5842 -177.964 -12.5165 -80.6828 -60.6588 -47.833 43.9052 -43.6855 3.18055e-015 1.59028e-015 -51.6113 -73.1677 -57.5788 -179.776 12.1207 88.9341 -68.4914 63.8366 3.2129 -32.2058 0 -0 -59.5034 83.4238 61.4195 -64.5514 11.5409 -145.095 -64.918 1.27222e-014 -7.95139e-015 28.0454 6.66848 -11.6447 90 0 -0 -79.8453 2.98331 159.861 -62.6157 -3.18056e-015 -1.59028e-015 28.7663 -26.804 34.7322 90 0 -3.18055e-015 
128.422 72.5855 240.472 -120.768 -10.2094 174.805 5.7619 -1.54049 1.47113 11.5671 -2.92441 3.0912 11.5671 -2.92441 3.09119 -8.31081e-012 -9.0191e-006 -5.27751e-005 -13.6395 -9.22142 -0.676827 -177.79 -13.0789 -80.3236 -60.5972 -50.3623 45.7957 -46.9029 3.18055e-015 1.59028e-015 -53.2732 -73.9301 -59.2706 -179.645 11.9445 88.2845 -66.7625 62.2515 -1.58124 -36.8716 -3.18055e-015 1.59028e-015 -67.4281 83.8901 69.3887 -64.0786 9.42637 -145.456 -65.9965 -3.18055e-015 7.95139e-015 28.241 4.9543 -9.86956 90 1.59028e-015 -6.36111e-015 -81.3753 3.59067 160.296 -65.593 -7.95139e-016 -4.77083e-015 30.7939 -27.0112 33.9011 90 -1.59028e-015 -0 
128.892 72.1407 241.748 -121.254 -10.4125 174.939 5.94236 -1.45717 1.49901 11.926 -2.75025 3.14237 11.926 -2.75025 3.14236 -8.31512e-012 -9.0191e-006 -5.27751e-005 -14.7226 -3.7798 -4.78912 -177.646 -13.1977 -79.7917 -60.4087 -49.0819 46.4732 -48.8005 1.59028e-015 1.59028e-015 -54.1936 -74.4788 -60.1846 -179.514 11.0653 87.4703 -65.2185 58.8837 -6.07253 -39.8456 -6.36111e-015 3.97569e-015 -74.4689 83.7915 76.5245 -63.7632 7.34777 -146.269 -66.4541 -3.18055e-015 3.97569e-015 28.2171 3.34954 -8.1122 90 -3.18055e-015 6.36111e-015 -83.1621 3.30761 160.465 -67.8578 1.59028e-015 1.59028e-015 31.3334 -26.9632 33.725 90 1.59028e-015 -0 
129.137 71.9069 242.946 -122.288 -10.627 174.474 6.08959 -1.3635 1.53803 12.2182 -2.55511 3.21339 12.2182 -2.55511 3.21338 -8.30693e-012 -9.0191e-006 -5.27751e-005 -15.0573 0.925721 -8.13044 -177.556 -13.0608 -79.3051 -60.8945 -47.8533 45.8385 -47.188 -1.59028e-015 -0 -52.5026 -75.0751 -58.319 -179.357 10.1698 86.3639 -65.5698 55.6804 -9.44341 -40.4923 -9.54166e-015 -5.76476e-015 -76.6791 83.1744 78.8589 -64.1672 5.4658 -146.492 -66.1832 3.18055e-015 3.77691e-015 27.752 2.55844 -7.37732 90 -7.95139e-015 1.27222e-014 -85.084 2.4498 160.79 -69.2285 0 -3.18056e-015 30.9464 -26.5427 33.2454 90 6.36111e-015 3.18055e-015 
